<svg width="81" height="57" viewBox="0 0 81 57" fill="none" xmlns="http://www.w3.org/2000/svg">
<path d="M19.4318 17.1818C19.2614 15.7424 18.5701 14.625 17.358 13.8295C16.1458 13.0341 14.6591 12.6364 12.8977 12.6364C11.6098 12.6364 10.483 12.8447 9.51705 13.2614C8.56061 13.678 7.8125 14.2509 7.27273 14.9801C6.74242 15.7093 6.47727 16.5379 6.47727 17.4659C6.47727 18.2424 6.66193 18.91 7.03125 19.4688C7.41004 20.018 7.89299 20.4773 8.48011 20.8466C9.06723 21.2064 9.68277 21.5047 10.3267 21.7415C10.9706 21.9687 11.5625 22.1534 12.1023 22.2955L15.0568 23.0909C15.8144 23.2898 16.6572 23.5644 17.5852 23.9148C18.5227 24.2652 19.4176 24.7434 20.2699 25.3494C21.1316 25.946 21.8419 26.7131 22.4006 27.6506C22.9593 28.5881 23.2386 29.7386 23.2386 31.1023C23.2386 32.6742 22.8267 34.0947 22.0028 35.3636C21.1884 36.6326 19.9953 37.6411 18.4233 38.3892C16.8608 39.1373 14.9621 39.5114 12.7273 39.5114C10.6439 39.5114 8.83996 39.1752 7.31534 38.5028C5.80019 37.8305 4.60701 36.893 3.7358 35.6903C2.87405 34.4877 2.38636 33.0909 2.27273 31.5H5.90909C6.00379 32.5985 6.37311 33.5076 7.01705 34.2273C7.67045 34.9375 8.49432 35.4678 9.48864 35.8182C10.4924 36.1591 11.572 36.3295 12.7273 36.3295C14.072 36.3295 15.2794 36.1117 16.3494 35.6761C17.4195 35.2311 18.267 34.6155 18.892 33.8295C19.517 33.0341 19.8295 32.1061 19.8295 31.0455C19.8295 30.0795 19.5597 29.2936 19.0199 28.6875C18.4801 28.0814 17.7699 27.589 16.8892 27.2102C16.0085 26.8314 15.0568 26.5 14.0341 26.2159L10.4545 25.1932C8.18182 24.5398 6.38258 23.607 5.05682 22.3949C3.73106 21.1828 3.06818 19.5966 3.06818 17.6364C3.06818 16.0076 3.50852 14.5871 4.3892 13.375C5.27936 12.1534 6.47254 11.2064 7.96875 10.5341C9.47443 9.85227 11.1553 9.51136 13.0114 9.51136C14.8864 9.51136 16.553 9.84754 18.0114 10.5199C19.4697 11.1828 20.625 12.0919 21.4773 13.2472C22.339 14.4025 22.7936 15.714 22.8409 17.1818H19.4318ZM28.576 39V17.1818H31.9283V39H28.576ZM30.2805 13.5455C29.6271 13.5455 29.0637 13.3229 28.5902 12.8778C28.1262 12.4328 27.8942 11.8977 27.8942 11.2727C27.8942 10.6477 28.1262 10.1127 28.5902 9.66761C29.0637 9.22254 29.6271 9 30.2805 9C30.9339 9 31.4927 9.22254 31.9567 9.66761C32.4302 10.1127 32.6669 10.6477 32.6669 11.2727C32.6669 11.8977 32.4302 12.4328 31.9567 12.8778C31.4927 13.3229 30.9339 13.5455 30.2805 13.5455ZM55.9091 17.1818L47.8409 39H44.4318L36.3636 17.1818H40L46.0227 34.5682H46.25L52.2727 17.1818H55.9091ZM66.0902 39.5114C64.7076 39.5114 63.4529 39.2509 62.326 38.7301C61.1991 38.1998 60.3042 37.4375 59.6413 36.4432C58.9785 35.4394 58.647 34.2273 58.647 32.8068C58.647 31.5568 58.8932 30.5436 59.3857 29.767C59.8781 28.9811 60.5362 28.3655 61.3601 27.9205C62.1839 27.4754 63.093 27.1439 64.0874 26.9261C65.0911 26.6989 66.0997 26.5189 67.1129 26.3864C68.4387 26.2159 69.5135 26.0881 70.3374 26.0028C71.1707 25.9081 71.7768 25.7519 72.1555 25.5341C72.5438 25.3163 72.7379 24.9375 72.7379 24.3977V24.2841C72.7379 22.8826 72.3544 21.7936 71.5874 21.017C70.8298 20.2405 69.6792 19.8523 68.1357 19.8523C66.5353 19.8523 65.2805 20.2027 64.3714 20.9034C63.4624 21.6042 62.8232 22.3523 62.4538 23.1477L59.272 22.0114C59.8402 20.6856 60.5978 19.6534 61.5447 18.9148C62.5012 18.1667 63.5429 17.6458 64.6697 17.3523C65.8061 17.0492 66.9235 16.8977 68.022 16.8977C68.7228 16.8977 69.5277 16.983 70.4368 17.1534C71.3554 17.3144 72.2408 17.6506 73.093 18.1619C73.9548 18.6733 74.6697 19.4451 75.2379 20.4773C75.8061 21.5095 76.0902 22.892 76.0902 24.625V39H72.7379V36.0455H72.5675C72.3402 36.5189 71.9614 37.0256 71.4311 37.5653C70.9008 38.1051 70.1953 38.5644 69.3146 38.9432C68.4339 39.322 67.3591 39.5114 66.0902 39.5114ZM66.6016 36.5C67.9273 36.5 69.0447 36.2396 69.9538 35.7188C70.8724 35.1979 71.5637 34.5256 72.0277 33.7017C72.5012 32.8778 72.7379 32.0114 72.7379 31.1023V28.0341C72.5959 28.2045 72.2834 28.3608 71.8004 28.5028C71.3269 28.6354 70.7777 28.7538 70.1527 28.858C69.5372 28.9527 68.9358 29.0379 68.3487 29.1136C67.7711 29.1799 67.3023 29.2367 66.9425 29.2841C66.0713 29.3977 65.2569 29.5824 64.4993 29.8381C63.7512 30.0843 63.1451 30.4583 62.6811 30.9602C62.2266 31.4527 61.9993 32.125 61.9993 32.9773C61.9993 34.142 62.4302 35.0227 63.2919 35.6193C64.1631 36.2064 65.2663 36.5 66.6016 36.5Z" fill="#BA5959"/>
</svg>
